<svg preserveAspectRatio="none" width="100%" height="100%" overflow="visible" style="display: block;" viewBox="0 0 18 18" fill="none" xmlns="http://www.w3.org/2000/svg">
<g id="list_alt_check">
<mask id="mask0_0_9" style="mask-type:alpha" maskUnits="userSpaceOnUse" x="0" y="0" width="18" height="18">
<rect id="Bounding box" width="18" height="18" fill="var(--fill-0, #CCCCCC)"/>
</mask>
<g mask="url(#mask0_0_9)">
<path id="list_alt_check_2" d="M3.75 14.25V3.75V12.2625V10.6688V14.25ZM3.75 15.75C3.3375 15.75 2.98437 15.6031 2.69062 15.3094C2.39688 15.0156 2.25 14.6625 2.25 14.25V3.75C2.25 3.3375 2.39688 2.98438 2.69062 2.69063C2.98437 2.39688 3.3375 2.25 3.75 2.25H14.25C14.6625 2.25 15.0156 2.39688 15.3094 2.69063C15.6031 2.98438 15.75 3.3375 15.75 3.75V9.75H14.25V3.75H3.75V14.25H9V15.75H3.75ZM13.0125 16.5L10.35 13.8375L11.4187 12.7875L13.0125 14.3813L16.2 11.1938L17.25 12.2625L13.0125 16.5ZM6 9.75C6.2125 9.75 6.39062 9.67813 6.53437 9.53438C6.67812 9.39063 6.75 9.2125 6.75 9C6.75 8.7875 6.67812 8.60938 6.53437 8.46563C6.39062 8.32188 6.2125 8.25 6 8.25C5.7875 8.25 5.60937 8.32188 5.46562 8.46563C5.32187 8.60938 5.25 8.7875 5.25 9C5.25 9.2125 5.32187 9.39063 5.46562 9.53438C5.60937 9.67813 5.7875 9.75 6 9.75ZM6 6.75C6.2125 6.75 6.39062 6.67813 6.53437 6.53438C6.67812 6.39063 6.75 6.2125 6.75 6C6.75 5.7875 6.67812 5.60937 6.53437 5.46562C6.39062 5.32187 6.2125 5.25 6 5.25C5.7875 5.25 5.60937 5.32187 5.46562 5.46562C5.32187 5.60937 5.25 5.7875 5.25 6C5.25 6.2125 5.32187 6.39063 5.46562 6.53438C5.60937 6.67813 5.7875 6.75 6 6.75ZM8.25 9.75H12.75V8.25H8.25V9.75ZM8.25 6.75H12.75V5.25H8.25V6.75Z" fill="var(--fill-0, #E6E6E6)"/>
</g>
</g>
</svg>
