<svg preserveAspectRatio="none" width="100%" height="100%" overflow="visible" style="display: block;" viewBox="0 0 22 22" fill="none" xmlns="http://www.w3.org/2000/svg">
<g id="chevron_left">
<mask id="mask0_0_6" style="mask-type:alpha" maskUnits="userSpaceOnUse" x="0" y="0" width="22" height="22">
<rect id="Bounding box" width="22" height="22" fill="var(--fill-0, #D9D9D9)"/>
</mask>
<g mask="url(#mask0_0_6)">
<path id="chevron_left_2" d="M9.90004 11L13.475 14.575C13.6431 14.7431 13.7271 14.957 13.7271 15.2167C13.7271 15.4764 13.6431 15.6903 13.475 15.8584C13.307 16.0264 13.0931 16.1105 12.8334 16.1105C12.5737 16.1105 12.3598 16.0264 12.1917 15.8584L7.97504 11.6417C7.88338 11.55 7.81845 11.4507 7.78025 11.3438C7.74206 11.2369 7.72296 11.1223 7.72296 11C7.72296 10.8778 7.74206 10.7632 7.78025 10.6563C7.81845 10.5494 7.88338 10.45 7.97504 10.3584L12.1917 6.14171C12.3598 5.97366 12.5737 5.88963 12.8334 5.88963C13.0931 5.88963 13.307 5.97366 13.475 6.14171C13.6431 6.30977 13.7271 6.52366 13.7271 6.78338C13.7271 7.0431 13.6431 7.25699 13.475 7.42504L9.90004 11Z" fill="var(--fill-0, #E6E6E6)"/>
</g>
</g>
</svg>
