<svg width="39" height="35" viewBox="0 0 38.114 34.893" fill="none" xmlns="http://www.w3.org/2000/svg">
  <defs>
    <linearGradient id="starGrad" x1="8.667" y1="7.584" x2="21.667" y2="26" gradientUnits="userSpaceOnUse">
      <stop stop-color="#FFE144"/>
      <stop offset="0.99" stop-color="#FFC700"/>
    </linearGradient>
    <linearGradient id="sparkGrad" x1="2.333" y1="1.426" x2="5.833" y2="6.384" gradientUnits="userSpaceOnUse">
      <stop stop-color="#FFE144"/>
      <stop offset="0.99" stop-color="#FFC700"/>
    </linearGradient>
  </defs>
  <g transform="translate(6 0)">
    <path d="M11.741 0.83C12.247-.277 13.753-.277 14.259.83l2.862 6.272c.203.446.608.753 1.076.818l6.589.908c1.163.16 1.629 1.659.778 2.503l-4.82 4.785c-.342.34-.497.838-.411 1.323l1.21 6.834c.214 1.206-1.006 2.132-2.036 1.547l-5.841-3.315a1.17 1.17 0 0 0-1.165 0L6.494 25.82c-1.03.585-2.25-.341-2.036-1.547l1.21-6.834c.086-.485-.069-.983-.411-1.323L.437 11.332C-.414 10.487.051 8.989 1.214 8.828l6.589-.908a1.17 1.17 0 0 0 1.076-.818L11.741.83z" fill="url(#starGrad)"/>
  </g>
  <g transform="translate(25 -1.595) rotate(-3.32 3.697 3.697) scale(1.158)">
    <path d="M0 4.12C0 3.363.428 2.67 1.106 2.331l4.553-2.276c.43-.215.886.296.671.726l-2.276 4.553C3.714 5.956 3.021 6.384 2.264 6.384H.5C.224 6.384 0 6.16 0 5.884V4.12z" fill="url(#sparkGrad)"/>
  </g>
  <g transform="translate(5.191 5.155) rotate(-84.22 3.835 3.835) scale(1.201)">
    <path d="M0 4.12C0 3.363.428 2.67 1.106 2.331l4.553-2.276c.43-.215.886.296.671.726l-2.276 4.553C3.714 5.956 3.021 6.384 2.264 6.384H.5C.224 6.384 0 6.16 0 5.884V4.12z" fill="url(#sparkGrad)"/>
  </g>
  <g transform="translate(6.728 24.661) rotate(-163.97 4.33 4.33) scale(1.357)">
    <path d="M0 4.12C0 3.363.428 2.67 1.106 2.331l4.553-2.276c.43-.215.886.296.671.726l-2.276 4.553C3.714 5.956 3.021 6.384 2.264 6.384H.5C.224 6.384 0 6.16 0 5.884V4.12z" fill="url(#sparkGrad)"/>
  </g>
  <g transform="translate(35.489 15) rotate(67.98 4.557 4.557) scale(1.428)">
    <path d="M0 4.12C0 3.363.428 2.67 1.106 2.331l4.553-2.276c.43-.215.886.296.671.726l-2.276 4.553C3.714 5.956 3.021 6.384 2.264 6.384H.5C.224 6.384 0 6.16 0 5.884V4.12z" fill="url(#sparkGrad)"/>
  </g>
  <g transform="translate(23.893 29.986) rotate(135.49 4.95 4.95) scale(1.551)">
    <path d="M0 4.12C0 3.363.428 2.67 1.106 2.331l4.553-2.276c.43-.215.886.296.671.726l-2.276 4.553C3.714 5.956 3.021 6.384 2.264 6.384H.5C.224 6.384 0 6.16 0 5.884V4.12z" fill="url(#sparkGrad)"/>
  </g>
</svg>
