<svg preserveAspectRatio="none" width="100%" height="100%" overflow="visible" style="display: block;" viewBox="0 0 26 26" fill="none" xmlns="http://www.w3.org/2000/svg">
  <path d="M11.7414 0.830214C12.2466 -0.276738 13.7534 -0.276738 14.2586 0.830213L17.1207 7.10238C17.324 7.54788 17.7291 7.85558 18.1971 7.92009L24.7861 8.82833C25.949 8.98862 26.4147 10.4872 25.564 11.3316L20.7438 16.1163C20.4015 16.4561 20.2468 16.954 20.3327 17.4393L21.5428 24.2728C21.7564 25.4788 20.5373 26.405 19.5064 25.8199L13.6652 22.5048C13.2503 22.2694 12.7497 22.2694 12.3348 22.5048L6.4936 25.8199C5.46271 26.405 4.24365 25.4788 4.45721 24.2728L5.66729 17.4393C5.75324 16.954 5.59854 16.4561 5.25618 16.1163L0.436034 11.3316C-0.414655 10.4872 0.0509846 8.98862 1.21387 8.82833L7.80294 7.92009C8.27094 7.85558 8.67596 7.54788 8.87925 7.10238L11.7414 0.830214Z" fill="#5C5C5C"/>
</svg>
