<svg preserveAspectRatio="none" width="100%" height="100%" overflow="visible" style="display: block;" viewBox="0 0 36 36" fill="none" xmlns="http://www.w3.org/2000/svg">
<g id="keyboard">
<mask id="mask0_0_24" style="mask-type:alpha" maskUnits="userSpaceOnUse" x="0" y="0" width="36" height="36">
<rect id="Bounding box" width="36" height="36" fill="var(--fill-0, #D9D9D9)"/>
</mask>
<g mask="url(#mask0_0_24)">
<path id="keyboard_2" d="M5.94548 27.7948C5.13548 27.7948 4.44207 27.5064 3.86525 26.9296C3.28843 26.3528 3.00002 25.6594 3.00002 24.8494V10.1221C3.00002 9.31211 3.28843 8.6187 3.86525 8.04188C4.44207 7.46506 5.13548 7.17665 5.94548 7.17665H29.5091C30.3191 7.17665 31.0125 7.46506 31.5893 8.04188C32.1662 8.6187 32.4546 9.31211 32.4546 10.1221V24.8494C32.4546 25.6594 32.1662 26.3528 31.5893 26.9296C31.0125 27.5064 30.3191 27.7948 29.5091 27.7948H5.94548ZM5.94548 24.8494H29.5091V10.1221H5.94548V24.8494ZM11.8364 23.3767H23.6182V20.4312H11.8364V23.3767ZM7.41821 18.9585H10.3637V16.013H7.41821V18.9585ZM11.8364 18.9585H14.7818V16.013H11.8364V18.9585ZM16.2546 18.9585H19.2V16.013H16.2546V18.9585ZM20.6727 18.9585H23.6182V16.013H20.6727V18.9585ZM25.0909 18.9585H28.0364V16.013H25.0909V18.9585ZM7.41821 14.5403H10.3637V11.5948H7.41821V14.5403ZM11.8364 14.5403H14.7818V11.5948H11.8364V14.5403ZM16.2546 14.5403H19.2V11.5948H16.2546V14.5403ZM20.6727 14.5403H23.6182V11.5948H20.6727V14.5403ZM25.0909 14.5403H28.0364V11.5948H25.0909V14.5403Z" fill="var(--fill-0, #E1E1E1)"/>
</g>
</g>
</svg>
