<svg preserveAspectRatio="none" width="100%" height="100%" overflow="visible" style="display: block;" viewBox="0 0 70 70" fill="none" xmlns="http://www.w3.org/2000/svg">
<g id="mic">
<mask id="mask0_0_15" style="mask-type:alpha" maskUnits="userSpaceOnUse" x="0" y="0" width="70" height="70">
<rect id="Bounding box" width="70" height="70" fill="var(--fill-0, #D9D9D9)"/>
</mask>
<g mask="url(#mask0_0_15)">
<path id="mic_2" d="M34.9999 40.8334C32.5693 40.8334 30.5033 39.9827 28.8019 38.2813C27.1006 36.5799 26.2499 34.514 26.2499 32.0834V14.5834C26.2499 12.1528 27.1006 10.0869 28.8019 8.38549C30.5033 6.6841 32.5693 5.8334 34.9999 5.8334C37.4304 5.8334 39.4964 6.6841 41.1978 8.38549C42.8992 10.0869 43.7499 12.1528 43.7499 14.5834V32.0834C43.7499 34.514 42.8992 36.5799 41.1978 38.2813C39.4964 39.9827 37.4304 40.8334 34.9999 40.8334ZM32.0832 58.3334V52.2813C27.611 51.6494 23.7828 49.7535 20.5988 46.5938C17.4148 43.4341 15.4825 39.5938 14.8019 35.073C14.7047 34.2466 14.9235 33.5417 15.4582 32.9584C15.9929 32.3751 16.6735 32.0834 17.4999 32.0834C18.3263 32.0834 19.019 32.3629 19.578 32.9219C20.137 33.481 20.5138 34.1737 20.7082 35.0001C21.3888 38.4028 23.078 41.198 25.7759 43.3855C28.4738 45.573 31.5485 46.6667 34.9999 46.6667C38.4999 46.6667 41.5867 45.5608 44.2603 43.349C46.9339 41.1372 48.611 38.3542 49.2915 35.0001C49.486 34.1737 49.8627 33.481 50.4217 32.9219C50.9808 32.3629 51.6735 32.0834 52.4999 32.0834C53.3263 32.0834 54.0068 32.3751 54.5415 32.9584C55.0762 33.5417 55.295 34.2466 55.1978 35.073C54.5172 39.4966 52.5971 43.3126 49.4374 46.5209C46.2776 49.7292 42.4374 51.6494 37.9165 52.2813V58.3334C37.9165 59.1598 37.637 59.8525 37.078 60.4115C36.519 60.9706 35.8263 61.2501 34.9999 61.2501C34.1735 61.2501 33.4808 60.9706 32.9217 60.4115C32.3627 59.8525 32.0832 59.1598 32.0832 58.3334ZM34.9999 35.0001C35.8263 35.0001 36.519 34.7206 37.078 34.1615C37.637 33.6025 37.9165 32.9098 37.9165 32.0834V14.5834C37.9165 13.757 37.637 13.0643 37.078 12.5053C36.519 11.9463 35.8263 11.6667 34.9999 11.6667C34.1735 11.6667 33.4808 11.9463 32.9217 12.5053C32.3627 13.0643 32.0832 13.757 32.0832 14.5834V32.0834C32.0832 32.9098 32.3627 33.6025 32.9217 34.1615C33.4808 34.7206 34.1735 35.0001 34.9999 35.0001Z" fill="var(--fill-0, #E1E1E1)"/>
</g>
</g>
</svg>
