<svg preserveAspectRatio="none" width="100%" height="100%" overflow="visible" style="display: block;" viewBox="0 0 28.3333 28.3333" fill="none" xmlns="http://www.w3.org/2000/svg">
<g id="info">
<path id="info_2" d="M12.75 21.25H15.5833V12.75H12.75V21.25ZM14.1667 9.91667C14.5681 9.91667 14.9045 9.7809 15.176 9.50938C15.4476 9.23785 15.5833 8.90139 15.5833 8.5C15.5833 8.09861 15.4476 7.76215 15.176 7.49062C14.9045 7.2191 14.5681 7.08333 14.1667 7.08333C13.7653 7.08333 13.4288 7.2191 13.1573 7.49062C12.8858 7.76215 12.75 8.09861 12.75 8.5C12.75 8.90139 12.8858 9.23785 13.1573 9.50938C13.4288 9.7809 13.7653 9.91667 14.1667 9.91667ZM14.1667 28.3333C12.2069 28.3333 10.3653 27.9615 8.64167 27.2177C6.91806 26.474 5.41875 25.4646 4.14375 24.1896C2.86875 22.9146 1.85938 21.4153 1.11563 19.6917C0.371875 17.9681 0 16.1264 0 14.1667C0 12.2069 0.371875 10.3653 1.11563 8.64167C1.85938 6.91806 2.86875 5.41875 4.14375 4.14375C5.41875 2.86875 6.91806 1.85938 8.64167 1.11563C10.3653 0.371875 12.2069 0 14.1667 0C16.1264 0 17.9681 0.371875 19.6917 1.11563C21.4153 1.85938 22.9146 2.86875 24.1896 4.14375C25.4646 5.41875 26.474 6.91806 27.2177 8.64167C27.9615 10.3653 28.3333 12.2069 28.3333 14.1667C28.3333 16.1264 27.9615 17.9681 27.2177 19.6917C26.474 21.4153 25.4646 22.9146 24.1896 24.1896C22.9146 25.4646 21.4153 26.474 19.6917 27.2177C17.9681 27.9615 16.1264 28.3333 14.1667 28.3333ZM14.1667 25.5C17.3306 25.5 20.0104 24.4021 22.2063 22.2063C24.4021 20.0104 25.5 17.3306 25.5 14.1667C25.5 11.0028 24.4021 8.32292 22.2063 6.12708C20.0104 3.93125 17.3306 2.83333 14.1667 2.83333C11.0028 2.83333 8.32292 3.93125 6.12708 6.12708C3.93125 8.32292 2.83333 11.0028 2.83333 14.1667C2.83333 17.3306 3.93125 20.0104 6.12708 22.2063C8.32292 24.4021 11.0028 25.5 14.1667 25.5Z" fill="var(--fill-0, #E1E1E1)"/>
</g>
</svg>
